<svg id="Слой_1" data-name="Слой 1" xmlns="http://www.w3.org/2000/svg" viewBox="0 0 59 50"><title>burger</title><path d="M56.5,52c-6.6,0-6.6-6-13.2-6s-6.6,6-13.2,6-6.6-6-13.3-6-6.6,6-13.3,6" transform="translate(-0.5 -5)" fill="none" stroke="#1acced" stroke-linecap="round" stroke-linejoin="round" stroke-width="6"/><path d="M56.5,33c-6.6,0-6.6-6-13.2-6s-6.6,6-13.2,6-6.6-6-13.3-6-6.6,6-13.3,6" transform="translate(-0.5 -5)" fill="none" stroke="#1acced" stroke-linecap="round" stroke-linejoin="round" stroke-width="6"/><path d="M56.5,14c-6.6,0-6.6-6-13.2-6s-6.6,6-13.2,6S23.5,8,16.8,8s-6.6,6-13.3,6" transform="translate(-0.5 -5)" fill="none" stroke="#1acced" stroke-linecap="round" stroke-linejoin="round" stroke-width="6"/></svg>
